<mxfile host="app.diagrams.net" agent="Mozilla/5.0 (Windows NT 10.0; Win64; x64; rv:130.0) Gecko/20100101 Firefox/130.0" version="24.7.16">
  <diagram name="Page-1" id="t9H2-PSyAUV4gN6eFNfD">
    <mxGraphModel dx="1354" dy="612" grid="1" gridSize="10" guides="1" tooltips="1" connect="1" arrows="1" fold="1" page="1" pageScale="1" pageWidth="850" pageHeight="1100" math="0" shadow="0">
      <root>
        <mxCell id="0" />
        <mxCell id="1" parent="0" />
        <mxCell id="cIcyXCnw8A1QHeWEp27g-10" value="" style="edgeStyle=orthogonalEdgeStyle;rounded=0;orthogonalLoop=1;jettySize=auto;html=1;startArrow=ERmany;startFill=0;endArrow=ERmandOne;endFill=0;" edge="1" parent="1" source="cIcyXCnw8A1QHeWEp27g-1" target="cIcyXCnw8A1QHeWEp27g-2">
          <mxGeometry relative="1" as="geometry" />
        </mxCell>
        <mxCell id="cIcyXCnw8A1QHeWEp27g-1" value="CIudades" style="rounded=1;whiteSpace=wrap;html=1;" vertex="1" parent="1">
          <mxGeometry x="80" y="20" width="120" height="60" as="geometry" />
        </mxCell>
        <mxCell id="cIcyXCnw8A1QHeWEp27g-11" value="" style="edgeStyle=orthogonalEdgeStyle;rounded=0;orthogonalLoop=1;jettySize=auto;html=1;startArrow=ERmandOne;startFill=0;endArrow=ERmany;endFill=0;" edge="1" parent="1" source="cIcyXCnw8A1QHeWEp27g-2" target="cIcyXCnw8A1QHeWEp27g-3">
          <mxGeometry relative="1" as="geometry" />
        </mxCell>
        <mxCell id="cIcyXCnw8A1QHeWEp27g-2" value="Estados" style="rounded=1;whiteSpace=wrap;html=1;" vertex="1" parent="1">
          <mxGeometry x="80" y="140" width="120" height="60" as="geometry" />
        </mxCell>
        <mxCell id="cIcyXCnw8A1QHeWEp27g-12" value="" style="edgeStyle=orthogonalEdgeStyle;rounded=0;orthogonalLoop=1;jettySize=auto;html=1;startArrow=ERone;startFill=0;endArrow=ERmany;endFill=0;" edge="1" parent="1" source="cIcyXCnw8A1QHeWEp27g-3" target="cIcyXCnw8A1QHeWEp27g-4">
          <mxGeometry relative="1" as="geometry" />
        </mxCell>
        <mxCell id="cIcyXCnw8A1QHeWEp27g-3" value="Oficinas" style="rounded=1;whiteSpace=wrap;html=1;" vertex="1" parent="1">
          <mxGeometry x="80" y="260" width="120" height="60" as="geometry" />
        </mxCell>
        <mxCell id="cIcyXCnw8A1QHeWEp27g-13" value="" style="edgeStyle=orthogonalEdgeStyle;rounded=0;orthogonalLoop=1;jettySize=auto;html=1;startArrow=ERmany;startFill=0;endArrow=ERmandOne;endFill=0;" edge="1" parent="1" source="cIcyXCnw8A1QHeWEp27g-4" target="cIcyXCnw8A1QHeWEp27g-5">
          <mxGeometry relative="1" as="geometry" />
        </mxCell>
        <mxCell id="cIcyXCnw8A1QHeWEp27g-15" value="" style="edgeStyle=orthogonalEdgeStyle;rounded=0;orthogonalLoop=1;jettySize=auto;html=1;startArrow=ERmany;startFill=0;endArrow=ERmany;endFill=0;" edge="1" parent="1" source="cIcyXCnw8A1QHeWEp27g-4" target="cIcyXCnw8A1QHeWEp27g-6">
          <mxGeometry relative="1" as="geometry" />
        </mxCell>
        <mxCell id="cIcyXCnw8A1QHeWEp27g-4" value="Autos" style="rounded=1;whiteSpace=wrap;html=1;" vertex="1" parent="1">
          <mxGeometry x="280" y="260" width="120" height="60" as="geometry" />
        </mxCell>
        <mxCell id="cIcyXCnw8A1QHeWEp27g-5" value="Marcas" style="rounded=1;whiteSpace=wrap;html=1;" vertex="1" parent="1">
          <mxGeometry x="280" y="140" width="120" height="60" as="geometry" />
        </mxCell>
        <mxCell id="cIcyXCnw8A1QHeWEp27g-17" value="" style="edgeStyle=orthogonalEdgeStyle;rounded=0;orthogonalLoop=1;jettySize=auto;html=1;startArrow=ERmandOne;startFill=0;endArrow=ERmany;endFill=0;" edge="1" parent="1" source="cIcyXCnw8A1QHeWEp27g-6" target="cIcyXCnw8A1QHeWEp27g-8">
          <mxGeometry relative="1" as="geometry" />
        </mxCell>
        <mxCell id="cIcyXCnw8A1QHeWEp27g-6" value="Rentas" style="rounded=1;whiteSpace=wrap;html=1;" vertex="1" parent="1">
          <mxGeometry x="280" y="380" width="120" height="60" as="geometry" />
        </mxCell>
        <mxCell id="cIcyXCnw8A1QHeWEp27g-16" value="" style="edgeStyle=orthogonalEdgeStyle;rounded=0;orthogonalLoop=1;jettySize=auto;html=1;startArrow=ERmandOne;startFill=0;endArrow=ERmany;endFill=0;" edge="1" parent="1" source="cIcyXCnw8A1QHeWEp27g-7" target="cIcyXCnw8A1QHeWEp27g-6">
          <mxGeometry relative="1" as="geometry" />
        </mxCell>
        <mxCell id="cIcyXCnw8A1QHeWEp27g-7" value="Tipo pago" style="rounded=1;whiteSpace=wrap;html=1;" vertex="1" parent="1">
          <mxGeometry x="80" y="380" width="120" height="60" as="geometry" />
        </mxCell>
        <mxCell id="cIcyXCnw8A1QHeWEp27g-8" value="Clitentes" style="rounded=1;whiteSpace=wrap;html=1;" vertex="1" parent="1">
          <mxGeometry x="280" y="500" width="120" height="60" as="geometry" />
        </mxCell>
        <mxCell id="cIcyXCnw8A1QHeWEp27g-14" value="" style="edgeStyle=orthogonalEdgeStyle;rounded=0;orthogonalLoop=1;jettySize=auto;html=1;endArrow=ERmany;endFill=0;startArrow=ERmandOne;startFill=0;" edge="1" parent="1" source="cIcyXCnw8A1QHeWEp27g-9" target="cIcyXCnw8A1QHeWEp27g-4">
          <mxGeometry relative="1" as="geometry" />
        </mxCell>
        <mxCell id="cIcyXCnw8A1QHeWEp27g-9" value="Tipos" style="rounded=1;whiteSpace=wrap;html=1;" vertex="1" parent="1">
          <mxGeometry x="480" y="260" width="120" height="60" as="geometry" />
        </mxCell>
      </root>
    </mxGraphModel>
  </diagram>
</mxfile>
